<svg width="32" height="32" viewBox="0 0 32 32" fill="none" xmlns="http://www.w3.org/2000/svg">
<path d="M19 21H24L22.595 19.595C22.4063 19.4063 22.2567 19.1822 22.1546 18.9357C22.0525 18.6891 22 18.4249 22 18.158V15C22.0002 13.7589 21.6156 12.5483 20.8992 11.5349C20.1829 10.5214 19.17 9.75496 18 9.341V9C18 8.46957 17.7893 7.96086 17.4142 7.58579C17.0391 7.21071 16.5304 7 16 7C15.4696 7 14.9609 7.21071 14.5858 7.58579C14.2107 7.96086 14 8.46957 14 9V9.341C11.67 10.165 10 12.388 10 15V18.159C10 18.697 9.786 19.214 9.405 19.595L8 21H13M19 21H13M19 21V22C19 22.7956 18.6839 23.5587 18.1213 24.1213C17.5587 24.6839 16.7956 25 16 25C15.2044 25 14.4413 24.6839 13.8787 24.1213C13.3161 23.5587 13 22.7956 13 22V21" stroke="#3C464E" stroke-width="1.6" stroke-linecap="round" stroke-linejoin="round"/>
</svg>
