<svg width="24" height="24" viewBox="0 0 24 24" fill="none" xmlns="http://www.w3.org/2000/svg">
<path fill-rule="evenodd" clip-rule="evenodd" d="M18.7069 7.293C18.8944 7.48053 18.9997 7.73484 18.9997 8C18.9997 8.26516 18.8944 8.51947 18.7069 8.707L10.7069 16.707C10.5194 16.8945 10.2651 16.9998 9.99992 16.9998C9.73475 16.9998 9.48045 16.8945 9.29292 16.707L5.29292 12.707C5.11076 12.5184 5.00997 12.2658 5.01224 12.0036C5.01452 11.7414 5.11969 11.4906 5.3051 11.3052C5.49051 11.1198 5.74132 11.0146 6.00352 11.0123C6.26571 11.01 6.51832 11.1108 6.70692 11.293L9.99992 14.586L17.2929 7.293C17.4804 7.10553 17.7348 7.00021 17.9999 7.00021C18.2651 7.00021 18.5194 7.10553 18.7069 7.293Z" fill="#43BE8D"/>
</svg>
