<svg width="24" height="24" viewBox="0 0 24 24" fill="none" xmlns="http://www.w3.org/2000/svg">
<g clip-path="url(#clip0_1200_19012)">
<path d="M11 2.05007V5.07007C7.608 5.55707 5 8.47507 5 12.0001C5 15.8661 8.134 19.0001 12 19.0001C13.572 19.0001 15.024 18.4821 16.192 17.6061L18.329 19.7431C16.605 21.1531 14.4 22.0001 12 22.0001C6.477 22.0001 2 17.5231 2 12.0001C2 6.81507 5.947 2.55107 11 2.05007ZM21.95 13.0001C21.75 15.0111 20.956 16.8471 19.743 18.3281L17.606 16.1921C18.293 15.2761 18.759 14.1861 18.929 13.0001H21.951H21.95ZM13.002 2.05007C17.726 2.51907 21.482 6.27607 21.952 11.0001H18.93C18.492 7.93507 16.067 5.51007 13.002 5.07107V2.04907V2.05007Z" fill="#595959"/>
</g>
<defs>
<clipPath id="clip0_1200_19012">
<rect width="24" height="24" fill="white"/>
</clipPath>
</defs>
</svg>
