<svg width="20" height="20" viewBox="0 0 20 20" fill="none" xmlns="http://www.w3.org/2000/svg">
<g clip-path="url(#clip0_2979_19277)">
<rect width="20" height="20" fill="#1877F2"/>
<path d="M19.5832 10.0584C19.5832 4.76562 15.2926 0.475021 9.99984 0.475021C4.7071 0.475021 0.416504 4.76562 0.416504 10.0584C0.416504 14.8417 3.92099 18.8063 8.50244 19.5253V12.8285H6.06917V10.0584H8.50244V7.94703C8.50244 5.5452 9.93317 4.21851 12.1222 4.21851C13.1707 4.21851 14.2674 4.40569 14.2674 4.40569V6.76408H13.059C11.8685 6.76408 11.4972 7.50281 11.4972 8.26067V10.0584H14.1551L13.7302 12.8285H11.4972V19.5253C16.0787 18.8063 19.5832 14.8417 19.5832 10.0584Z" fill="white"/>
</g>
<defs>
<clipPath id="clip0_2979_19277">
<rect width="20" height="20" fill="white"/>
</clipPath>
</defs>
</svg>
