<svg width="20" height="20" viewBox="0 0 20 20" fill="none" xmlns="http://www.w3.org/2000/svg">
<path d="M2.78539 6.48159C2.97385 6.02661 3.25008 5.61321 3.5983 5.26499C3.94652 4.91677 4.35992 4.64054 4.8149 4.45208C5.26987 4.26362 5.75751 4.16663 6.24997 4.16663C6.74243 4.16663 7.23007 4.26362 7.68504 4.45208C8.14002 4.64054 8.55342 4.91677 8.90164 5.26499L9.99997 6.36333L11.0983 5.26499C11.8016 4.56173 12.7554 4.16664 13.75 4.16664C14.7445 4.16664 15.6984 4.56173 16.4016 5.26499C17.1049 5.96826 17.5 6.92209 17.5 7.91666C17.5 8.91123 17.1049 9.86506 16.4016 10.5683L9.99997 16.97L3.5983 10.5683C3.25008 10.2201 2.97385 9.80671 2.78539 9.35173C2.59694 8.89676 2.49994 8.40912 2.49994 7.91666C2.49994 7.4242 2.59694 6.93656 2.78539 6.48159Z" stroke="#43BE8D" stroke-width="1.6" stroke-linecap="round" stroke-linejoin="round"/>
</svg>
