<svg width="20" height="20" viewBox="0 0 20 20" fill="none" xmlns="http://www.w3.org/2000/svg">
<path d="M8.33333 5H4.16667C3.72464 5 3.30072 5.17559 2.98816 5.48816C2.67559 5.80072 2.5 6.22464 2.5 6.66667V14.1667C2.5 14.6087 2.67559 15.0326 2.98816 15.3452C3.30072 15.6577 3.72464 15.8333 4.16667 15.8333H15.8333C16.2754 15.8333 16.6993 15.6577 17.0118 15.3452C17.3244 15.0326 17.5 14.6087 17.5 14.1667V6.66667C17.5 6.22464 17.3244 5.80072 17.0118 5.48816C16.6993 5.17559 16.2754 5 15.8333 5H11.6667M8.33333 5V4.16667C8.33333 3.72464 8.50893 3.30072 8.82149 2.98816C9.13405 2.67559 9.55797 2.5 10 2.5C10.442 2.5 10.866 2.67559 11.1785 2.98816C11.4911 3.30072 11.6667 3.72464 11.6667 4.16667V5M8.33333 5C8.33333 5.44203 8.50893 5.86595 8.82149 6.17851C9.13405 6.49107 9.55797 6.66667 10 6.66667C10.442 6.66667 10.866 6.49107 11.1785 6.17851C11.4911 5.86595 11.6667 5.44203 11.6667 5M7.5 11.6667C7.94203 11.6667 8.36595 11.4911 8.67851 11.1785C8.99107 10.866 9.16667 10.442 9.16667 10C9.16667 9.55797 8.99107 9.13405 8.67851 8.82149C8.36595 8.50893 7.94203 8.33333 7.5 8.33333C7.05797 8.33333 6.63405 8.50893 6.32149 8.82149C6.00893 9.13405 5.83333 9.55797 5.83333 10C5.83333 10.442 6.00893 10.866 6.32149 11.1785C6.63405 11.4911 7.05797 11.6667 7.5 11.6667ZM7.5 11.6667C8.58833 11.6667 9.51417 12.3625 9.85833 13.3333M7.5 11.6667C6.98282 11.6665 6.47831 11.8267 6.05596 12.1252C5.6336 12.4237 5.31418 12.8458 5.14167 13.3333M12.5 9.16667H15M12.5 12.5H14.1667" stroke="#43BE8D" stroke-width="1.6" stroke-linecap="round" stroke-linejoin="round"/>
</svg>
