<svg width="20" height="20" viewBox="0 0 20 20" fill="none" xmlns="http://www.w3.org/2000/svg">
<path d="M6.66667 13.3333L9.06583 10.9342M9.06583 10.9342C9.29725 11.1694 9.57297 11.3566 9.87708 11.4848C10.1812 11.6129 10.5077 11.6797 10.8377 11.681C11.1677 11.6824 11.4947 11.6185 11.7999 11.4928C12.105 11.3672 12.3823 11.1824 12.6157 10.949C12.8491 10.7157 13.034 10.4385 13.1597 10.1333C13.2854 9.8282 13.3494 9.50119 13.3481 9.17118C13.3468 8.84116 13.2802 8.51467 13.1521 8.21054C13.024 7.9064 12.8369 7.63064 12.6017 7.39917C12.1316 6.93658 11.4978 6.67847 10.8383 6.68108C10.1787 6.68369 9.54699 6.9468 9.08058 7.41309C8.61418 7.87938 8.35093 8.51108 8.34816 9.17059C8.3454 9.8301 8.60335 10.464 9.06583 10.9342ZM17.5 10C17.5 10.9849 17.306 11.9602 16.9291 12.8701C16.5522 13.7801 15.9997 14.6069 15.3033 15.3033C14.6069 15.9997 13.7801 16.5522 12.8701 16.9291C11.9602 17.306 10.9849 17.5 10 17.5C9.01509 17.5 8.03982 17.306 7.12987 16.9291C6.21993 16.5522 5.39314 15.9997 4.6967 15.3033C4.00026 14.6069 3.44781 13.7801 3.0709 12.8701C2.69399 11.9602 2.5 10.9849 2.5 10C2.5 8.01088 3.29018 6.10322 4.6967 4.6967C6.10322 3.29018 8.01088 2.5 10 2.5C11.9891 2.5 13.8968 3.29018 15.3033 4.6967C16.7098 6.10322 17.5 8.01088 17.5 10Z" stroke="#43BE8D" stroke-width="1.6" stroke-linecap="round" stroke-linejoin="round"/>
</svg>
