<svg width="20" height="20" viewBox="0 0 20 20" fill="none" xmlns="http://www.w3.org/2000/svg">
<path d="M17.5 10H12.5M10.8333 5.83333C10.8333 6.71739 10.4821 7.56523 9.85702 8.19036C9.2319 8.81548 8.38405 9.16667 7.5 9.16667C6.61594 9.16667 5.7681 8.81548 5.14298 8.19036C4.51786 7.56523 4.16667 6.71739 4.16667 5.83333C4.16667 4.94928 4.51786 4.10143 5.14298 3.47631C5.7681 2.85119 6.61594 2.5 7.5 2.5C8.38405 2.5 9.2319 2.85119 9.85702 3.47631C10.4821 4.10143 10.8333 4.94928 10.8333 5.83333ZM7.5 11.6667C6.17392 11.6667 4.90215 12.1935 3.96447 13.1311C3.02678 14.0688 2.5 15.3406 2.5 16.6667V17.5H12.5V16.6667C12.5 15.3406 11.9732 14.0688 11.0355 13.1311C10.0979 12.1935 8.82608 11.6667 7.5 11.6667Z" stroke="white" stroke-width="1.6" stroke-linecap="round" stroke-linejoin="round"/>
</svg>
